<?xml version="1.0" encoding="utf-8"?>
<!-- Svg Vector Icons : http://www.onlinewebfonts.com/icon -->
<!DOCTYPE svg PUBLIC "-//W3C//DTD SVG 1.1//EN" "http://www.w3.org/Graphics/SVG/1.1/DTD/svg11.dtd">
<svg version="1.1" xmlns="http://www.w3.org/2000/svg" xmlns:xlink="http://www.w3.org/1999/xlink" x="0px" y="0px" viewBox="0 0 1000 1000" enable-background="new 0 0 1000 1000" xml:space="preserve">
<metadata> Svg Vector Icons : http://www.onlinewebfonts.com/icon </metadata>
<g><g transform="translate(0.000000,511.000000) scale(0.100000,-0.100000)"><path d="M6911.2,4986.3c-45-16.4-85.9-30.7-92-30.7c-4.1,0-1034.9-1024.7-2286.6-2274.3C2693.9,842.6,2243.9,384.5,2205.1,302.7c-59.3-126.8-63.4-253.6-6.1-378.4c30.7-71.6,539.9-591.1,2294.8-2347.9c1298.7-1300.8,2292.7-2280.4,2345.9-2311.1c77.7-47,116.6-55.2,235.2-55.2c98.2,0,165.7,12.3,214.7,38.9c38.9,20.5,180,143.2,312.9,274.1l239.3,239.3L5778.1-2172.1C3730.8-122.8,3714.5-106.4,3689.9,0c-18.4,85.9-18.4,130.9,0,216.8c24.5,106.4,40.9,120.7,2088.2,2172.1l2063.6,2065.7l-239.3,239.3c-132.9,130.9-272,253.6-310.9,272C7193.4,5014.9,7011.4,5025.1,6911.2,4986.3z"/></g></g>
</svg>